<?xml version="1.0" encoding="UTF-8" standalone="no"?>
<svg xmlns:rdf="http://www.w3.org/1999/02/22-rdf-syntax-ns#" xmlns="http://www.w3.org/2000/svg" xml:space="preserve" height="115.53" width="155.45" version="1.1" xmlns:cc="http://creativecommons.org/ns#" xmlns:dc="http://purl.org/dc/elements/1.1/" viewBox="0 0 155.44729 115.52965"><g><path d="m105.31 3.1236c-4.62 0.1508-8.401 2.7015-10.73 5.668-3.931 5.1724-6.754 10.536-8.887 15.499-1.267 2.955-3.076 7.791-5.108 13.776-0.70688-1.1629-1.7783-2.2511-3.4405-2.9131-0.53371-2.4528-2.3829-5.7409-7.5323-6.0098-4.2792 0.21656-6.7559 1.0586-9.4103 2.9668-0.75012 0.51803-1.5206 1.1287-2.291 1.834 1.5349-4.1942 3.1-8.5663 4.8243-13.559 0 0 1.0297-3.2138 1.5567-4.7676 0.52692-1.5531-1.4988-1.9714-2.9805-2.0762-1.0074-0.0716-1.7262-0.09203-2.4893-0.08887 0.34211-1.0658 0.68873-2.1566 1.043-3.1993 0.53-1.5525-1.494-1.9691-2.981-2.0747-2.267-0.1615-3.207-0.1589-6.025 0.1318-2.7188 0.28118-3.5598 3.3679-4.0899 4.7911-1.1089 2.7274-5.2233 14.766-5.9532 16.876-1.6052 3.8339-4.5988 13.027-7.1114 18.157-2.2791 5.3865-4.0402 7.2522-5.5655 7.7315 0.25288-2.0069 0.96352-4.4746 2.086-7.3604 1.2631-3.1746 6.7644-16.447 7.7013-18.608 1.9142-5.3483 2.7207-7.3569 2.0987-10.88-0.807-3.726-2.64-5.82-4.97-7.211-1.066-2.9194-2.916-4.6165-5.152-5.7742-2.029-1.0365-5.84-1.6515-9.946-0.1621-6.55 2.3737-7.9035 8.4582-8.0528 11.085-0.2674 1.472 0.45141 3.1641 2.3311 3.2012 2.8202 0.05681 2.4785-3.4456 3.3545-5.2413 0.36886-1.3578 1.0621-2.1716 1.2744-2.4961 0.61895-0.90019 1.9084-1.6258 3.8038-1.2383 0.33774 0.07542 0.63222 0.21814 0.89747 0.39356-5.8332 2.5684-7.0952 8.2299-7.2384 10.744-0.26426 1.4719 0.45218 3.1628 2.335 3.1983 2.8171 0.05831 2.4781-3.4433 3.3575-5.2374 0.3657-1.3578 1.0591-2.1726 1.2715-2.4971 0.16137-0.23369 0.37135-0.4546 0.62208-0.64844-3.358 9.985-7.7126 16.493-12.016 30.571-2.5191 9.1969 0.11948 12.401 3.2481 14.979 0.23534 0.18101 0.48319 0.3317 0.72852 0.4834 0.74869 2.198 2.1641 3.6156 3.6983 4.8799 2.5686 1.9752 5.7466 2.1856 9.1017 1.0303 2.8674-0.98763 5.2945-2.5786 7.9669-4.8672 0.72831 2.7746 2.4476 4.3709 4.3272 5.0128 2.4538 0.80412 6.5167 0.07957 8.7442-1.3145 2.0409-0.875 3.5518-2.1175 5.5391-3.7911 1.7994 2.6761 4.2731 4.378 7.8702 5.3507 8.5187 1.624 15.239-3.4866 17.743-5.4005 0.62368 2.3839 2.0322 3.8422 3.6358 4.9141 4.7636 2.1398 11.391-1.0033 12.4-1.5098 1.5374-0.77519 3.6327-2.009 5.3008-3.3575 0.0242 0.0085 0.0481 0.0114 0.0723 0.01955 0.0537 2.5276 2.6732 5.1937 5.3077 5.5919 5.2471 0.40984 8.5012-2.3169 11.606-5.4063 0.0851 0.0025 0.17391-0.003 0.26075-0.003-0.14279 1.9447 0.31842 3.8822 2.1328 4.9561 2.0401 0.97582 5.7776 0.11148 8.5489-1.0234 3.9355-1.8492 6.173-4.3759 8.711-5.8038 0.29783-0.18724 0.59332-0.32355 0.8838-0.4336-0.50651 4.1332-3.4873 8.826-7.5128 10.35-0.12906 0.04725-9.1314 3.7068-19.239 3.6856-6.5669-0.0126-29.125-1.9161-35.077-2.4698-6.1344-0.5694-19.806-2.0255-27.936-2.2051-5.3748-0.11973-21.692-0.19646-27.835 0.48634-2.7967 0.31266-5.4052 1.2965-5.837 2.7315-1.5478 3.0195-10.649 25.014-11.635 27.332-1.8375 4.3262-3.7719 7.4654 4.3467 5.543-1.826 4.2562-3.6244 7.3182 4.5928 5.3301 3.4809-0.99074 11.994-3.0826 17.598-4.6719 15.144-3.3471 36.395-6.1165 46.626-6.8302 12.572-0.93719 30.954-1.1111 39.593-2.3145 15.631-1.2057 21.589-5.3756 26.68-9.423 7.1762-6.9575 9.6156-13.946 8.7774-24.101-0.71681-4.8034-3.2846-7.0511-5.1612-8.1349-1.3833-3.6837-3.9941-5.249-5.4571-5.9005-1.4542-0.6505-2.9553-1.3159-5.877-0.94337-2.2066 0.2804-4.3544 1.3471-5.9727 2.4239 1.6636-4.2004 4.8463-11.953 5.1124-12.9 0.59616-1.7468 0.67235-3.8662-0.16601-4.6719-0.41763-0.40639-0.79285-0.67812-1.8145-0.72462-0.83044-0.037-1.8177 0.27691-2.6983 0.69141 0.0546-0.15178 0.23226-0.58881 0.25196-0.65919 0.59613-1.7468 0.67306-3.8621-0.16211-4.671-0.41762-0.40482-0.79285-0.6791-1.8145-0.7256-1.7019-0.07396-4.0552 1.3056-4.8047 2.0459-0.5867 0.57966-1.0383 0.87983-1.5 1.7422-1.0004-2.6006-3.8651-3.493-5.0723-3.712-1.8211-0.24474-3.5318-0.13899-5.2608 0.31739 0.15291-0.25942 0.33146-0.54743 0.45997-0.78126 4.8234-8.405 5.1139-10.089 5.7745-13.717 0.11167-1.227-0.36436-3.0428-1.4072-4.3809-0.45272-0.58198-1.5899-1.1595-3.0332-1.6055-0.0588-1.1709-0.51062-2.6253-1.3906-3.7579-0.69443-0.88919-2.9052-1.8092-5.5391-2.1817-0.69041-0.082266-1.3668-0.10837-2.0254-0.086915h-0.001z"/><g fill="none"><path d="m102.27 63.861c0.008 2.547 2.6606 5.2593 5.3181 5.661 5.3944 0.42134 8.685-2.4659 11.869-5.661-0.203 2.0272 0.23515 4.0851 2.1274 5.205 2.0401 0.97581 5.7782 0.11421 8.55-1.0207 3.9355-1.8492 6.1746-4.3781 8.7125-5.8059 1.8341-1.153 3.5761-0.79625 4.6512 0.50168 2.3806 4.3316-1.2316 12.651-6.8575 14.779-0.12418 0.04555-9.1288 3.7039-19.24 3.6858-6.5688-0.0148-29.121-1.9185-35.075-2.4721-6.1306-0.56944-19.806-2.0232-27.936-2.2028-5.3748-0.11972-21.688-0.19538-27.836 0.4875-2.7967 0.31108-5.407 1.2924-5.8341 2.7289-1.5494 3.0211-10.652 25.013-11.638 27.331-1.8529 4.3592-3.8286 7.5312 4.5159 5.5129 3.4809-0.99075 11.994-3.0841 17.598-4.6734 15.144-3.3471 36.396-6.117 46.626-6.8306 12.572-0.93719 30.952-1.112 39.591-2.3154 15.631-1.2058 21.591-5.3728 26.682-9.42 7.1762-6.9575 9.6156-13.949 8.7769-24.103-0.86038-5.7658-4.4066-7.8725-6.1966-8.6712-1.4542-0.65056-2.9524-1.3168-5.871-0.94588-3.0028 0.38276-5.9119 2.2178-7.4988 3.5559-1.3622 1.1506-2.5482 2.3784-3.7845 2.2249-2.4271-0.29846-0.744-4.3914-0.31381-5.7098 0.64256-1.8799 5.9819-14.749 6.3075-15.908 0.59615-1.7468 0.67244-3.8654-0.16592-4.671-0.41762-0.40639-0.79119-0.67962-1.8128-0.72612-1.6972-0.07565-4.0551 1.3042-4.8014 2.0445-0.58985 0.57964-1.0421 0.88125-1.5022 1.7429-1.0019-2.5998-3.8624-3.4936-5.068-3.7118-3.4298-0.45994-6.4712 0.27799-9.9706 2.3761-5.7169 3.6984-7.0719 6.7619-9.1912 11.923-1.2796 3.3392-1.499 4.5301-1.8404 8.5387v0.01695c-1.3912 2.0721-5.7231 3.9457-7.8475 3.7582-3.5596 0.29218 4.3602-10.326 4.8242-12.051 0.0127-0.06781-5.5973 3.9835-5.5879 3.9149 4.8628-4.5056 7.4038-7.4831 8.4356-8.6256 3.7852-3.6638 9.745-11.672 11.948-15.681 4.8234-8.405 5.1152-10.09 5.7758-13.718 0.11167-1.227-0.36571-3.0408-1.4086-4.3789-0.69288-0.89069-2.9021-1.809-5.5376-2.1831-5.5258-0.65838-10.092 2.1934-12.752 5.5838-3.9276 5.1711-6.7556 10.537-8.8881 15.499-2.129 4.9624-5.7019 14.779-9.4912 27.512-1.8852 1.3664-4.1282 2.3572-6.1345 3.1872-2.9508 1.2246-8.5712 1.72-9.9762-2.5824-0.91388-3.6779-0.68188-6.6469 1.6327-10.96 1.396-2.7321 3.3024-5.2373 5.8726-6.2531 2.2351-0.88444 3.5588-0.05975 3.7098 1.6216-1.6563-0.68125-3.6626-0.28118-4.6669 1.8933-0.453 0.96319-0.59772 2.532 0.6945 3.9181 1.2749 1.2073 4.3224 1.4105 6.3006 0.4938 2.2006-1.0089 3.9237-3.8795 3.709-6.5775-0.07247-2.3391-1.5211-7.0756-7.7331-7.4-4.2792 0.21659-6.7494 1.0569-9.4069 2.9644-2.7833 1.9224-5.8891 5.0065-7.9825 10.222-1.0995 2.7966-1.6886 4.4269-2.4436 9.6075 0 0-2.8636 4.2568-4.9422 3.7322-1.9796-0.91988-0.64962-3.7291 0.68262-6.5212 4.5002-10.964 8.1213-20.598 12.794-34.127 0 0 1.0279-3.2132 1.5549-4.7671 0.52692-1.5531-1.4967-1.9712-2.9784-2.076-2.2721-0.16147-3.2096-0.16147-6.0291 0.12926-2.7188 0.28274-3.5596 3.37-4.0896 4.7931-1.1089 2.7281-5.2221 14.764-5.952 16.877-1.6052 3.8307-4.6009 13.026-7.1106 18.158-3.9048 9.22-6.295 8.155-8.5669 7.4044-2.4239-1.4397-1.8506-5.9461 0.65906-12.398 1.2631-3.1746 6.7669-16.447 7.7038-18.608 1.9142-5.3483 2.7204-7.3569 2.0983-10.879-0.8895-4.1071-3.0216-6.2375-5.6956-7.6219-2.0291-1.038-5.8403-1.6508-9.9462-0.16465-6.5462 2.3753-7.9056 8.4569-8.055 11.086-0.26426 1.4719 0.45222 3.166 2.335 3.2014 2.8171 0.05825 2.4758-3.4456 3.3551-5.2396 0.3657-1.3578 1.0594-2.1729 1.2718-2.4974 0.62054-0.89862 1.9096-1.6248 3.8065-1.2404 1.6555 0.37096 2.4884 2.0949 2.0055 3.6488-3.4408 11.398-8.1469 17.725-12.78 32.878-2.5191 9.1988 0.12184 12.401 3.2505 14.979 2.5686 1.9752 5.7468 2.1855 9.1019 1.0301 2.8674-0.98762 5.2961-2.5777 7.9688-4.8663 0.72831 2.7746 2.4459 4.371 4.3256 5.0128 2.4538 0.80412 6.5169 0.07883 8.7438-1.3152 2.0409-0.875 3.5525-2.1193 5.5399-3.7929 1.7994 2.6761 4.2737 4.3773 7.8712 5.3499 8.5188 1.624 15.238-3.4858 17.742-5.3995 0.62368 2.3839 2.0338 3.8425 3.6374 4.9144 4.7636 2.1398 11.389-1.0026 12.398-1.509 1.5556-0.78438 3.6878-2.0382 5.3653-3.4054z" stroke="#000" stroke-width="2.5287"/><path d="m97.845 58.698c0.0064 2.547 2.6575 5.2609 5.3181 5.6602 5.3912 0.4237 8.685-2.4635 11.871-5.6602-0.20449 2.0272 0.23044 4.0874 2.1258 5.2082 2.0401 0.97262 5.7782 0.11422 8.55-1.0215 3.9355-1.85 6.1722-4.3804 8.7125-5.8067 1.8341-1.1514 3.5745-0.79782 4.6559 0.50325 2.3736 4.3284-1.2379 12.648-6.8619 14.776-0.12905 0.04725-9.1331 3.7071-19.242 3.6858-6.5669-0.0127-29.123-1.9169-35.074-2.4706-6.1344-0.5694-19.806-2.0232-27.934-2.2028-5.3748-0.11972-21.692-0.19686-27.836 0.48594-2.7967 0.31266-5.407 1.2955-5.8388 2.7305-1.5478 3.0195-10.648 25.013-11.634 27.331-1.8521 4.3608-3.8309 7.5306 4.5151 5.5114 3.4825-0.98763 11.995-3.0825 17.599-4.6734 15.144-3.3456 36.396-6.1162 46.624-6.83 12.57-0.93482 30.954-1.1136 39.593-2.3131 15.628-1.2097 21.591-5.3751 26.68-9.4219 7.1781-6.9581 9.6144-13.948 8.7756-24.104-0.86044-5.7642-4.4034-7.8738-6.1935-8.6712-1.4542-0.6505-2.9524-1.3168-5.8741-0.94432-2.9996 0.38118-5.9088 2.2146-7.4956 3.5527-1.3669 1.1538-2.5529 2.38-3.7845 2.228-2.4271-0.30006-0.744-4.3922-0.31381-5.713 0.63944-1.8799 5.9803-14.747 6.3044-15.906 0.59615-1.7468 0.67244-3.8638-0.16274-4.6726-0.41762-0.40482-0.79119-0.67969-1.8128-0.72612-1.7019-0.07396-4.0551 1.3058-4.8046 2.0461-0.5867 0.57966-1.0389 0.87975-1.5006 1.7421-1.0004-2.6006-3.8639-3.4929-5.0711-3.7118-3.4282-0.46072-6.4662 0.27881-9.9688 2.3769-5.7161 3.6976-7.0694 6.7619-9.1894 11.923-1.2843 3.3377-1.499 4.5285-1.8435 8.5369l0.002 0.01905c-1.3912 2.0737-5.7263 3.9441-7.8519 3.7598-3.5548 0.29062-1.2261-6.4131-0.76212-8.1362 0.01275-0.06844-0.0085 0.06611 0 0 4.8659-4.5049 7.4069-7.4856 8.4388-8.6244 3.7853-3.6669 9.745-11.672 11.948-15.681 4.8234-8.4062 5.1121-10.093 5.7758-13.718 0.11155-1.2286-0.36898-3.0424-1.4087-4.3804-0.69444-0.88919-2.9036-1.8091-5.5376-2.1816-5.5258-0.65838-10.092 2.1902-12.754 5.5807-3.9308 5.1727-6.7544 10.537-8.8862 15.499-2.129 4.964-5.7019 14.779-9.4919 27.512-1.8875 1.3664-4.1274 2.3572-6.1337 3.1872-2.9508 1.2262-8.5725 1.7216-9.9812-2.5809-0.90919-3.6795-0.67719-6.6488 1.6374-10.96 1.396-2.7336 3.2992-5.2381 5.8726-6.2531 2.2336-0.88444 3.5588-0.06144 3.7098 1.6216-1.6563-0.67969-3.6626-0.28274-4.6669 1.8918-0.45771 0.96638-0.59772 2.532 0.69132 3.9197 1.2749 1.2058 4.3224 1.4089 6.3019 0.4938 2.2013-1.0104 3.9221-3.8795 3.7098-6.5794-0.07628-2.3375-1.5202-7.0738-7.7325-7.3981-4.2792 0.21656-6.7525 1.0569-9.4069 2.9652-2.7849 1.9232-5.8891 5.0058-7.9825 10.222-1.1042 2.7966-1.6886 4.4269-2.4451 9.6056 0 0-2.8635 4.2576-4.9453 3.7322-1.978-0.91831-0.64806-3.7291 0.68262-6.5194 4.5049-10.964 8.1244-20.599 12.797-34.125 0 0 1.0248-3.2148 1.5532-4.7702 0.53008-1.5531-1.4935-1.9689-2.9799-2.0744-2.2674-0.16147-3.2064-0.16147-6.0251 0.12926-2.7188 0.28118-3.5588 3.37-4.0889 4.7931-1.1089 2.7274-5.2221 14.765-5.952 16.875-1.6052 3.8339-4.6009 13.029-7.1138 18.159-3.9017 9.2212-6.2919 8.1544-8.5638 7.4031-2.4286-1.4397-1.8506-5.9437 0.65594-12.396 1.2646-3.1762 6.765-16.447 7.7069-18.608 1.9096-5.3468 2.7172-7.3556 2.0936-10.881-0.88475-4.1056-3.0169-6.2359-5.6909-7.6206-2.0291-1.0364-5.8403-1.6523-9.9462-0.16296-6.55 2.3738-7.9056 8.4569-8.055 11.084-0.26741 1.4719 0.45222 3.166 2.3319 3.203 2.8202 0.05681 2.4789-3.4456 3.3551-5.2412 0.36886-1.3578 1.0625-2.1729 1.2749-2.4974 0.61895-0.90019 1.9096-1.6263 3.8049-1.2388 1.6539 0.36937 2.49 2.0934 2.0071 3.6472-3.4416 11.397-8.1488 17.725-12.78 32.878-2.5191 9.1969 0.12184 12.399 3.2505 14.978 2.5671 1.9744 5.7468 2.1871 9.1019 1.0317 2.8674-0.98918 5.2961-2.5792 7.9638-4.8656 0.733 2.7722 2.4522 4.3702 4.3256 5.0121 2.4569 0.80256 6.5206 0.07946 8.7488-1.3136 2.0378-0.87656 3.5509-2.1224 5.5391-3.7968 1.7955 2.6769 4.2744 4.3796 7.8719 5.3531 8.5175 1.6216 15.238-3.4866 17.742-5.4019 0.62366 2.3855 2.0338 3.8457 3.6374 4.916 4.7636 2.1398 11.389-1.0026 12.393-1.5106 1.558-0.78438 3.6901-2.0366 5.37-3.4054z" stroke="#000" stroke-width="4.3223"/><path d="m97.845 58.698c0.0064 2.547 2.6575 5.2609 5.3181 5.6602 5.3912 0.4237 8.685-2.4635 11.871-5.6602-0.20449 2.0272 0.23044 4.0874 2.1258 5.2082 2.0401 0.97262 5.7782 0.11422 8.55-1.0215 3.9355-1.85 6.1722-4.3804 8.7125-5.8067 1.8341-1.1514 3.5745-0.79782 4.6559 0.50325 2.3736 4.3284-1.2379 12.648-6.8619 14.776-0.12905 0.04725-9.1331 3.7071-19.242 3.6858-6.5669-0.0127-29.123-1.9169-35.074-2.4706-6.1344-0.5694-19.806-2.0232-27.934-2.2028-5.3748-0.11972-21.692-0.19686-27.836 0.48594-2.7967 0.31266-5.407 1.2955-5.8388 2.7305-1.5478 3.0195-10.648 25.013-11.634 27.331-1.8521 4.3608-3.8309 7.5306 4.5151 5.5114 3.4825-0.98763 11.995-3.0825 17.599-4.6734 15.144-3.3456 36.396-6.1162 46.624-6.83 12.57-0.93482 30.954-1.1136 39.593-2.3131 15.628-1.2097 21.591-5.3751 26.68-9.4219 7.1781-6.9581 9.6144-13.948 8.7756-24.104-0.86044-5.7642-4.4034-7.8738-6.1935-8.6712-1.4542-0.6505-2.9524-1.3168-5.8741-0.94432-2.9996 0.38118-5.9088 2.2146-7.4956 3.5527-1.3669 1.1538-2.5529 2.38-3.7845 2.228-2.4271-0.30006-0.744-4.3922-0.31381-5.713 0.63944-1.8799 5.9803-14.747 6.3044-15.906 0.59615-1.7468 0.67244-3.8638-0.16274-4.6726-0.41762-0.40482-0.79119-0.67969-1.8128-0.72612-1.7019-0.07396-4.0551 1.3058-4.8046 2.0461-0.5867 0.57966-1.0389 0.87975-1.5006 1.7421-1.0004-2.6006-3.8639-3.4929-5.0711-3.7118-3.4282-0.46072-6.4662 0.27881-9.9688 2.3769-5.7161 3.6976-7.0694 6.7619-9.1894 11.923-1.2843 3.3377-1.499 4.5285-1.8435 8.5369l0.002 0.002c-1.3912 2.0698-5.7263 3.9591-7.8519 3.7748-3.5548 0.29062-1.2261-6.4131-0.76212-8.1363 0.01275-0.06844-0.0085 0.06611 0 0 4.8659-4.5049 7.4069-7.4856 8.4388-8.6244 3.7853-3.6669 9.745-11.672 11.948-15.681 4.8234-8.4062 5.1121-10.093 5.7758-13.717 0.11168-1.2286-0.36885-3.0424-1.4086-4.3804-0.69456-0.88931-2.9038-1.8092-5.5377-2.1817-5.5258-0.65838-10.092 2.1902-12.754 5.5807-3.9308 5.1727-6.7544 10.537-8.8862 15.499-2.129 4.964-5.7019 14.779-9.4919 27.512-1.8875 1.3664-4.1274 2.3572-6.1337 3.1872-2.9508 1.2262-8.5725 1.7216-9.9812-2.5809-0.90919-3.6795-0.67719-6.6488 1.6374-10.96 1.396-2.7336 3.2992-5.2381 5.8726-6.2531 2.2336-0.88444 3.5588-0.06144 3.7098 1.6216-1.6563-0.67962-3.6626-0.28274-4.6669 1.8918-0.45771 0.96638-0.59772 2.532 0.69132 3.9197 1.2749 1.2058 4.3224 1.4089 6.3019 0.49379 2.2013-1.0104 3.9221-3.8795 3.7098-6.5794-0.07628-2.3375-1.5202-7.0738-7.7325-7.3981-4.2792 0.21656-6.7525 1.0569-9.4069 2.9652-2.7849 1.9232-5.8891 5.0058-7.9825 10.222-1.1042 2.7966-1.6886 4.4269-2.4451 9.6056 0 0-2.8635 4.2576-4.9453 3.7322-1.978-0.91831-0.64806-3.7291 0.68262-6.5194 4.5049-10.964 8.1244-20.599 12.797-34.125 0 0 1.0248-3.2148 1.5532-4.7702 0.53008-1.5531-1.4935-1.9689-2.9799-2.0744-2.2674-0.16147-3.2064-0.16147-6.0251 0.12926-2.7188 0.28118-3.5588 3.37-4.0889 4.7931-1.1089 2.7274-5.2221 14.765-5.952 16.875-1.6052 3.8339-4.6009 13.029-7.1138 18.159-3.9017 9.2219-6.2919 8.1544-8.5638 7.4031-2.4286-1.4397-1.8506-5.9437 0.65594-12.396 1.2646-3.1762 6.765-16.447 7.7069-18.608 1.9096-5.3468 2.7172-7.3556 2.0936-10.881-0.88475-4.1056-3.0169-6.2359-5.6909-7.6206-2.0291-1.0364-5.8403-1.6523-9.9462-0.16296-6.55 2.3738-7.9056 8.4569-8.055 11.084-0.26741 1.4719 0.45222 3.166 2.3319 3.203 2.8202 0.05681 2.4789-3.4456 3.3551-5.2412 0.36886-1.3578 1.0625-2.1729 1.2749-2.4974 0.61895-0.90019 1.9096-1.6263 3.8049-1.2388 1.6539 0.36937 2.49 2.0934 2.0071 3.6472-3.4416 11.397-8.1488 17.725-12.78 32.878-2.5191 9.1969 0.12184 12.399 3.2505 14.978 2.5671 1.9744 5.7468 2.1871 9.1019 1.0317 2.8674-0.98919 5.2961-2.5792 7.9638-4.8656 0.733 2.7722 2.4522 4.3702 4.3256 5.0121 2.4569 0.80256 6.5206 0.07946 8.7488-1.3136 2.0378-0.87656 3.5509-2.1225 5.5391-3.7969 1.7955 2.6769 4.2744 4.3796 7.8719 5.3531 8.5175 1.6216 15.238-3.4866 17.742-5.4019 0.62366 2.3855 2.0338 3.8457 3.6374 4.916 4.7636 2.1398 11.389-1.0026 12.393-1.5106 1.558-0.78438 3.6901-2.0366 5.37-3.4054zm6.9925-47.746c3.628-4.393 4.7353-1.0876 2.7314 2.5501-1.1679 2.1154-5.1891 9.7444-7.4856 13.083-2.4161 3.4716-3.5729 5.1971-8.9862 11.59 0.0873-0.39064 0.29493-0.67025 0.36098-0.875 5.3024-15.233 9.4925-20.89 13.379-26.348zm10.795 36.686c-0.87531 2.1288-2.1211 4.4544-2.1211 4.4544-1.8278 3.3101-3.2859 4.3686-5.0397 4.0244-2.5529-0.77575-2.8572-5.4452-2.1809-8.0269 1.7444-8.0781 7.1331-12.112 7.9444-12.551 2.1872-1.1018 3.5761-0.86475 4.5851 0.17948 0.97206 0.85056 0.45301 3.4503-0.38696 5.1885-0.46243 0.95375-1.6484 3.9654-2.8006 6.7312z" stroke="#fdb827" stroke-width="1.9445"/></g><path d="m97.845 58.698c0.0064 2.547 2.6575 5.2609 5.3181 5.6602 5.3912 0.4237 8.685-2.4635 11.871-5.6602-0.20449 2.0272 0.23044 4.0874 2.1258 5.2082 2.0401 0.97262 5.7782 0.11422 8.55-1.0215 3.9355-1.85 6.1722-4.3804 8.7125-5.8067 1.8341-1.1514 3.5745-0.79782 4.6559 0.50325 2.3736 4.3284-1.2379 12.648-6.8619 14.776-0.12905 0.04725-9.1331 3.7071-19.242 3.6858-6.5669-0.0127-29.123-1.9169-35.074-2.4706-6.1344-0.5694-19.806-2.0232-27.934-2.2028-5.3748-0.11972-21.692-0.19686-27.836 0.48594-2.7967 0.31266-5.407 1.2955-5.8388 2.7305-1.5478 3.0195-10.648 25.013-11.634 27.331-1.8521 4.3608-3.8309 7.5306 4.5151 5.5114 3.4825-0.98763 11.995-3.0825 17.599-4.6734 15.144-3.3456 36.396-6.1162 46.624-6.83 12.57-0.93482 30.954-1.1136 39.593-2.3131 15.628-1.2097 21.591-5.3751 26.68-9.4219 7.1781-6.9581 9.6144-13.948 8.7756-24.104-0.86044-5.7642-4.4034-7.8738-6.1935-8.6712-1.4542-0.6505-2.9524-1.3168-5.8741-0.94432-2.9996 0.38118-5.9088 2.2146-7.4956 3.5527-1.3669 1.1538-2.5529 2.38-3.7845 2.228-2.4271-0.30006-0.744-4.3922-0.31381-5.713 0.63944-1.8799 5.9803-14.747 6.3044-15.906 0.59615-1.7468 0.67244-3.8638-0.16274-4.6726-0.41762-0.40482-0.79119-0.67969-1.8128-0.72612-1.7019-0.07396-4.0551 1.3058-4.8046 2.0461-0.5867 0.57966-1.0389 0.87975-1.5006 1.7421-1.0004-2.6006-3.8639-3.4929-5.0711-3.7118-3.4282-0.46072-6.4662 0.27881-9.9688 2.3769-5.7161 3.6976-7.0694 6.7619-9.1894 11.923-1.2843 3.3377-1.499 4.5285-1.8435 8.5369l0.002 0.002c-1.3912 2.0698-5.7263 3.9591-7.8519 3.7748-3.5548 0.29062-1.2261-6.4131-0.76212-8.1363 0.01275-0.06844-0.0085 0.06611 0 0 4.8659-4.5049 7.4069-7.4856 8.4388-8.6244 3.7853-3.6669 9.745-11.672 11.948-15.681 4.8234-8.4062 5.1121-10.093 5.7758-13.717 0.11168-1.2286-0.36885-3.0424-1.4086-4.3804-0.69456-0.88931-2.9038-1.8092-5.5377-2.1817-5.5258-0.65838-10.092 2.1902-12.754 5.5807-3.9308 5.1727-6.7544 10.537-8.8862 15.499-2.129 4.964-5.7019 14.779-9.4919 27.512-1.8875 1.3664-4.1274 2.3572-6.1337 3.1872-2.9508 1.2262-8.5725 1.7216-9.9812-2.5809-0.90919-3.6795-0.67719-6.6488 1.6374-10.96 1.396-2.7336 3.2992-5.2381 5.8726-6.2531 2.2336-0.88444 3.5588-0.06144 3.7098 1.6216-1.6563-0.67962-3.6626-0.28274-4.6669 1.8918-0.45771 0.96638-0.59772 2.532 0.69132 3.9197 1.2749 1.2058 4.3224 1.4089 6.3019 0.49379 2.2013-1.0104 3.9221-3.8795 3.7098-6.5794-0.07628-2.3375-1.5202-7.0738-7.7325-7.3981-4.2792 0.21656-6.7525 1.0569-9.4069 2.9652-2.7849 1.9232-5.8891 5.0058-7.9825 10.222-1.1042 2.7966-1.6886 4.4269-2.4451 9.6056 0 0-2.8635 4.2576-4.9453 3.7322-1.978-0.91831-0.64806-3.7291 0.68262-6.5194 4.5049-10.964 8.1244-20.599 12.797-34.125 0 0 1.0248-3.2148 1.5532-4.7702 0.53008-1.5531-1.4935-1.9689-2.9799-2.0744-2.2674-0.16147-3.2064-0.16147-6.0251 0.12926-2.7188 0.28118-3.5588 3.37-4.0889 4.7931-1.1089 2.7274-5.2221 14.765-5.952 16.875-1.6052 3.8339-4.6009 13.029-7.1138 18.159-3.9017 9.2219-6.2919 8.1544-8.5638 7.4031-2.4286-1.4397-1.8506-5.9437 0.65594-12.396 1.2646-3.1762 6.765-16.447 7.7069-18.608 1.9096-5.3468 2.7172-7.3556 2.0936-10.881-0.88475-4.1056-3.0169-6.2359-5.6909-7.6206-2.0291-1.0364-5.8403-1.6523-9.9462-0.16296-6.55 2.3738-7.9056 8.4569-8.055 11.084-0.26741 1.4719 0.45222 3.166 2.3319 3.203 2.8202 0.05681 2.4789-3.4456 3.3551-5.2412 0.36886-1.3578 1.0625-2.1729 1.2749-2.4974 0.61895-0.90019 1.9096-1.6263 3.8049-1.2388 1.6539 0.36937 2.49 2.0934 2.0071 3.6472-3.4416 11.397-8.1488 17.725-12.78 32.878-2.5191 9.1969 0.12184 12.399 3.2505 14.978 2.5671 1.9744 5.7468 2.1871 9.1019 1.0317 2.8674-0.98919 5.2961-2.5792 7.9638-4.8656 0.733 2.7722 2.4522 4.3702 4.3256 5.0121 2.4569 0.80256 6.5206 0.07946 8.7488-1.3136 2.0378-0.87656 3.5509-2.1225 5.5391-3.7969 1.7955 2.6769 4.2744 4.3796 7.8719 5.3531 8.5175 1.6216 15.238-3.4866 17.742-5.4019 0.62366 2.3855 2.0338 3.8457 3.6374 4.916 4.7636 2.1398 11.389-1.0026 12.393-1.5106 1.558-0.78438 3.6901-2.0366 5.37-3.4054m6.9925-47.746c3.628-4.393 4.7354-1.0876 2.7314 2.5501-1.1679 2.1154-5.1891 9.7444-7.4856 13.083-2.4161 3.4716-3.5729 5.1971-8.9863 11.59 0.08731-0.39064 0.29492-0.67025 0.36098-0.875 5.3024-15.233 9.4925-20.89 13.379-26.348m10.795 36.686c-0.87532 2.1288-2.1211 4.4544-2.1211 4.4544-1.8278 3.3101-3.2859 4.3686-5.0397 4.0244-2.5529-0.77575-2.8572-5.4452-2.1809-8.0269 1.7444-8.0781 7.1331-12.112 7.9444-12.551 2.1872-1.1018 3.5761-0.86475 4.5851 0.17948 0.97206 0.85056 0.453 3.4503-0.38696 5.1885-0.46244 0.95375-1.6484 3.9654-2.8006 6.7312" fill="#007dc3"/><path fill="#fdb827" d="m45.198 75.449c-1.1058-0.0063-2.2946 0.0053-3.4004 0.03615-0.09831 0.42842-0.23786 0.93372-0.37793 1.3613l-0.39746 1.3799-0.37696 1.3779-0.4004 1.4004 0.41016-0.05664 0.3877-0.0166 0.43067-0.03615 0.38672 0.003-0.81446 2.8174-0.81739 2.834-0.81446 2.8184-0.79493 2.834-0.40723 0.03615-0.43067 0.0791-0.40723 0.05371-0.40723 0.09278-0.38086 1.3408-0.39356 1.3838-0.4004 1.377-0.39747 1.4014 2.3174-0.47364 2.3936-0.4541 2.335-0.41407 2.3936-0.41016 0.33789-1.1856 0.3379-1.1651 0.33692-1.166 0.31836-1.1455-0.31153 0.0332-0.27149 0.01955-0.27149 0.05664-0.27442 0.03615 0.24121-0.85352 0.23536-0.83498 0.23828-0.85352 0.25879-0.8545 0.4502-0.03615 0.42676-0.05664 0.44727-0.03615 0.4668-0.0371 0.22852 0.78126 0.24805 0.78126 0.24512 0.7588 0.24805 0.78126-0.23145 0.0166-0.23535 0.04005-0.20899 0.0166-0.21485 0.03615-0.32129 1.1289-0.3379 1.1455-0.31739 1.1465-0.3379 1.168 2.2354-0.35742 2.2383-0.33399 2.2578-0.31836v-0.003l2.2549-0.31446 0.34375-1.165 0.31446-1.1465 0.31543-1.1485 0.32032-1.126-0.50587 0.05664-0.48731 0.05274-0.48341 0.03615-0.48633 0.05665-0.26465-0.99709-0.26856-0.97267-0.22559-0.99318c-0.07864-0.29217-0.21118-0.66567-0.24805-0.97755l0.70508-0.50001 0.7422-0.50294 0.72169-0.48341 0.74122-0.47657 0.375-1.3447 0.37695-1.3203 0.38086-1.3379 0.37696-1.3018-0.75489-0.84376-0.71094-0.8213-0.71192-0.84474c-0.23358-0.2717-0.46573-0.58333-0.71583-0.83692l-3.42-0.13965-3.4004-0.0791-3.3838-0.003zm-9.1153 0.19532-3.4795 0.19238-3.3282 0.05567-3.417 0.13574-3.4268 0.36817-0.53907 1.9795-0.45411 1.6123-0.45704 1.5928-0.44044 1.6153 0.3711-0.05957 0.39063-0.05274 0.40723-0.07617 0.40723-0.05664-0.9336 3.2852-0.9336 3.3008-0.9336 3.2842-0.917 3.3018-0.4043 0.11524-0.41016 0.0957-0.41114 0.09278-0.37012 0.09668-0.45704 1.5557-0.4375 1.6123-0.45704 1.6094-0.45997 1.6123 3.4903-0.96974 3.542-0.95021 3.5401-0.8711 3.5655-0.83399 1.3281-1.2949c0.40898-0.3678 0.9371-0.83364 1.3272-1.2188l1.335-1.2578 1.3438-1.1953 0.44044-1.6153 0.47657-1.6094 0.45704-1.6162 0.45997-1.5723c-0.0385-0.07956-0.17861-0.19516-0.21485-0.292-0.04006-0.09687-0.17335-0.21371-0.21192-0.31055-0.03856-0.09846-0.17653-0.21847-0.21192-0.31446-0.018-0.07639-0.15234-0.19808-0.19238-0.29492l0.39063-0.36719 0.39454-0.36817 0.3877-0.34766c0.09831-0.07639 0.33154-0.25231 0.41016-0.34766l0.39746-1.4365 0.417-1.4375 0.417-1.4365 0.39746-1.4209-0.66895-0.95997-0.65821-0.95314c-0.21078-0.29454-0.422-0.72352-0.63282-1.0361-0.21313-0.29376-0.42747-0.66712-0.63575-0.94044zm25.866 0.37598v0.001l-0.29786 1.1094-0.31738 1.126-0.31836 1.126-0.31739 1.1484 0.38672 0.003h0.40724l0.42774 0.02345h0.4297l-0.73438 2.6026-0.73829 2.6055-0.73536 2.6221-0.71485 2.6231 0.73145 0.68458c0.25324 0.215 0.5212 0.51208 0.77442 0.70899l0.7754 0.66212 0.79102 0.70899 2.1582-0.23926 2.1992-0.23828 2.1953-0.22168 2.2178-0.21875 1.2119-0.79102 1.208-0.75196 1.2119-0.77052 1.2051-0.71192 0.55958-2.1953 0.58009-2.1758 0.55567-2.1748 0.58008-2.1787 0.44336 0.02345 0.46973 0.02245 0.42774 0.0205 0.48341 0.02245 0.22168-0.90724 0.24121-0.8965 0.23535-0.91115 0.22168-0.69825-2.2744-0.21192-2.2549-0.20899-2.5264-0.18848-2.0557-0.28809-0.14258 0.81837-0.25781 0.9336-0.23829 0.9297-0.26172 0.95411 0.21484 0.003h0.21582l0.23145 0.01955 0.23536 0.003-0.57618 2.1358-0.59669 2.1553-0.57911 2.1592-0.57618 2.1553-0.917 0.0332-0.89357 0.05273-0.91407 0.07324-0.89064 0.05274 0.61231-2.2383 0.61915-2.251 0.61622-2.2354 0.61524-2.2354c0.05894 0 0.15757 0.02235 0.21582 0.003l0.23145 0.0205h0.23535l0.24805 0.02345 0.26172-0.97365 0.27832-0.95021 0.25781-0.95411 0.23828-0.73829-2.2549-0.28418-2.0196-0.05372-2.1553-0.34375-2.1192-0.13281zm67.301 1.3086v0.001l-2.209 0.40332-2.1954 0.35156-2.1953 0.26758-2.1914 0.21582-0.98634 0.4502-0.94728 0.4629-0.96681 0.47071-0.96681 0.46973-0.0693 0.68556-0.0801 1.3506-0.0859 0.68555-0.0596 0.70509 0.65626 0.27149c0.19346 0.09536 0.50478 0.17687 0.69825 0.27539l0.67871 0.26465 0.69826 0.25488 1.8086-0.17871 1.8506-0.19922c0.58277-0.05194 1.2256-0.16586 1.8076-0.25488 0.58042-0.07397 1.2648-0.18149 1.8311-0.29102l-0.0235 0.4004-0.0234 0.37793-0.0195 1.0596-0.003 0.41992-0.97365 0.16602c-0.30986 0.07567-0.64329 0.10995-0.95704 0.16504l-0.9502 0.14649-0.95314 0.14551 0.0234-0.20898 0.0166-0.20801 0.003-0.20899 0.0196-0.19239-1.6318 0.17872-1.6162 0.14258-1.6123 0.14258-1.5762 0.12598-0.0625 0.4004-0.04 0.39747-0.04 0.39746-0.0391 0.38379 0.91017 0.32813 0.9502 0.31445c0.3083 0.1174 0.63665 0.22886 0.94728 0.30762l0.97267 0.33106 2.2754-0.30762c0.74006-0.09219 1.5925-0.2185 2.3145-0.34766 0.73769-0.10955 1.5775-0.29628 2.2979-0.44434 0.7385-0.14727 1.575-0.34869 2.2969-0.53614l0.95411-0.69825c0.31302-0.20788 0.68482-0.47145 0.97657-0.71876l0.92091-0.71876c0.29336-0.22603 0.66113-1.1727 0.95607-1.4365h0.003l0.004-0.70509 0.0224-0.70508 0.003-0.70606 0.0235-0.70118-0.63868-0.02345-0.60255-0.05957-0.64259-0.06348-0.59961-0.11915c-0.60401 0.16784-1.2835 0.33623-1.8906 0.44728-0.60166 0.12925-1.2648 0.25553-1.8672 0.34766-0.60164 0.11104-1.2648 0.22325-1.8672 0.29492l-1.8838 0.25489 0.0166-0.30469v-0.28516l0.0235-1.0625 0.0332-0.26465 0.91309-0.14551 0.91408-0.12305 0.93067-0.14258 0.93067-0.16504v0.13574 0.13282l-0.0175 0.13184v0.13282l1.5537-0.32129c0.50257-0.10149 1.0464-0.21882 1.5293-0.35743 0.5065-0.12058 1.048-0.2587 1.5332-0.417l1.4893-0.49414 0.0166-0.32422-0.003-0.30469-0.003-0.30469-0.003-0.30469-0.81739-0.08594-0.83791-0.10547-0.8379-0.12598-0.81739-0.12305zm-46.285 0.64063-0.21875 0.66114-0.21875 0.89357-0.21778 0.89454-0.21875 0.89357 0.40723 0.02345 0.41016 0.02345 0.42774 0.01955 0.42676 0.04295-0.46387 1.7881-0.45606 1.8047-0.45704 1.8076-0.44044 1.8076-0.42774-0.003-0.4629 0.0166-0.41114 0.0166-0.42676 0.0166-0.23828 0.8545-0.21875 0.89747-0.24121 0.87404-0.22266 0.91017 5.0831-0.07227 5.1817-0.21582 0.18165-0.79786 0.17871-0.79786 0.19922-0.79493 0.18165-0.75782-0.44728-0.003-0.42676 0.0166-0.41016 0.01955-0.40724-0.0069 0.48341-2.0528 0.39649-1.6553 0.37794-1.669 0.40039-1.6514 0.39063 0.003c0.11635 0.0212 0.30914 0.0421 0.4043 0.02245l0.41016 0.0205 0.43066 0.01955 0.17579-0.79102 0.18164-0.77833 0.17871-0.79786 0.25196-1.0664-4.963-0.32129-4.7647-0.11523zm11.649 0.69044-0.15918 0.73926-0.17871 0.75782-0.16211 0.77833-0.16309 0.77735 0.41114 0.02345 0.39063 0.0205 0.42676 0.003 0.42774 0.03905-0.41406 1.7949-0.3379 1.5723-0.34082 1.5567-0.34082 1.5762-0.44434-0.003-0.4502 0.0166-0.40723 0.0127-0.40724 0.0205-0.17871 0.73829-0.17871 0.77736-0.16211 0.7588-0.18262 0.79396 2.374 0.05371 2.335-0.13965 2.3106-0.1416 2.2383-0.11914 0.14258-0.87794 0.11914-0.65919 0.12208-0.66212 0.13574-0.65821-0.54297 0.0127-0.52247 0.0166-0.52638 0.01365-0.48731 0.01955 0.15918-0.79786 0.14258-0.75782 0.16211-0.77833 0.16211-0.7588 0.13281-0.03615c0.04 0.01905 0.13455-0.01955 0.17481-0.01955h0.15625l0.19531-0.0205 1.3311 1.4307 1.3936 1.3906 1.0996 1.3975c0.44592 0.43238 1.3221 1.6546 1.794 2.0791l1.4532-0.10547 1.4776-0.12989 1.5557-0.10938 1.2813-0.125 0.3545-2.6953 0.26465-1.9434 0.24219-1.9278 0.20508-2.4229 0.19532-0.0069 0.42676-0.0166 0.3711 0.003h0.41016l0.0606-0.61622 0.0791-0.62208 0.0859-0.62598 0.0733-0.71192-2.2022-0.0069-1.9668-0.05273-2.1026-0.0459-2.0596 0.02635-0.0986 0.60547-0.10352 0.61915-0.10254 0.62306-0.0986 0.62208 0.40333-0.0166 0.39063 0.02345h0.5l0.56641 0.04295-0.0957 1.0527-0.0996 0.58301-0.0996 0.60255-0.082 0.60255-0.17579 0.01955-0.17578 0.0166c-0.04-0.002-0.14842 0.04665-0.18848 0.02635l-0.16211 0.0332-1.4141-1.7647-1.1152-1.291c-0.15025 0.07649-0.79278-0.75384-1.1397-1.2051l-0.83399-1.1885-1.9805-0.14551-1.9629-0.14942-1.9639-0.14941-1.9229-0.16895zm-43.908 1.8877 0.89454 0.0069-0.20215 0.63868-0.17579 0.64259-0.18164 0.67872-0.19531 0.64259-0.87794 0.0293-0.8506 0.0332-0.8379 0.03615-0.84083 0.05371 0.17871-0.68262 0.19922-0.67872 0.20117-0.66212 0.17871-0.67579 0.83497-0.03615 0.8379-0.0127 0.83692-0.01365zm-18.846 1.1426-0.21875 0.73829-0.21485 0.77833-0.21875 0.75782-0.21875 0.75782-0.87696 0.10938-0.8545 0.11231-0.8379 0.10937-0.83692 0.13282 0.22168-0.79493 0.21875-0.78126 0.21778-0.77442 0.21875-0.77833 0.8379-0.08887 0.834-0.11328 0.85743-0.09278 0.8711-0.07227zm-2.4629 8.6651-0.27832 0.89357-0.23535 0.89356-0.26172 0.91407-0.25489 0.91408-0.9004 0.16895-0.87403 0.16895-0.8545 0.16895-0.8379 0.18848 0.25879-0.9336 0.26172-0.93068 0.25782-0.93068 0.25489-0.9131 0.8545-0.15235 0.85743-0.16602 0.8545-0.15235 0.89747-0.13184z"/></g></svg>
